<?xml version="1.0"?>
<svg width="640" height="480" xmlns="http://www.w3.org/2000/svg" xmlns:svg="http://www.w3.org/2000/svg">
 <!-- Created with SVG-edit - https://github.com/SVG-Edit/svgedit-->
 <g class="layer">
  <title>Layer 1</title>
  <rect fill="#FF0000" height="474" id="svg_1" stroke="#000000" stroke-width="5" width="633" x="3.5" y="3.5"/>
  <text fill="#000000" font-family="serif" font-size="24" id="svg_2" stroke="#000000" stroke-width="0" text-anchor="middle" transform="matrix(1 0 0 0.706926 0 69.5089)" x="152.5" xml:space="preserve" y="231.5"/>
  <text fill="#000000" font-family="serif" font-size="24" id="svg_4" stroke="#000000" stroke-dasharray="null" stroke-linecap="null" stroke-linejoin="null" stroke-width="0" text-anchor="middle" transform="matrix(12.3715 0 0 5.99824 -2026.08 -1203.09)" x="183.5" xml:space="preserve" y="235.5"/>
  <text fill="#000000" font-family="serif" font-size="24" id="svg_6" stroke="#000000" stroke-dasharray="null" stroke-linecap="null" stroke-linejoin="null" stroke-width="0" text-anchor="middle" transform="rotate(-0.761725 188.653 124.242) matrix(9.67638 0 0 4.68291 -1190.16 -228.513)" x="142.5" xml:space="preserve" y="83.5"/>
  <text fill="#000000" font-family="serif" font-size="24" id="svg_8" stroke="#000000" stroke-dasharray="null" stroke-linecap="null" stroke-linejoin="null" stroke-width="0" text-anchor="middle" transform="matrix(7.25073 0 0 3.85279 -957.436 -424.129)" x="158.5" xml:space="preserve" y="143.5"/>
  <text fill="#000000" font-family="serif" font-size="24" id="svg_10" stroke="#000000" stroke-width="0" text-anchor="middle" transform="matrix(1 0 0 0.706926 0 69.5089)" x="172.5" xml:space="preserve" y="259.791505"/>
  <text fill="#000000" font-family="serif" font-size="24" id="svg_11" stroke="#000000" stroke-dasharray="null" stroke-linecap="null" stroke-linejoin="null" stroke-width="0" text-anchor="middle" transform="matrix(12.3715 0 0 5.99824 -2006.08 -1183.09)" x="183.5" xml:space="preserve" y="235.5"/>
  <text fill="#000000" font-family="serif" font-size="24" id="svg_12" stroke="#000000" stroke-dasharray="null" stroke-linecap="null" stroke-linejoin="null" stroke-width="0" text-anchor="middle" transform="rotate(-0.761725 208.649 144.242) matrix(9.67638 0 0 4.68291 -1190.16 -228.513)" x="144.566889" xml:space="preserve" y="87.770849"/>
  <text fill="#000000" font-family="serif" font-size="24" id="svg_13" stroke="#000000" stroke-dasharray="null" stroke-linecap="null" stroke-linejoin="null" stroke-width="0" text-anchor="middle" transform="matrix(7.25073 0 0 3.85279 -957.436 -424.129)" x="161.258343" xml:space="preserve" y="148.691044"/>
  <text fill="#000000" font-family="serif" font-size="24" id="svg_14" stroke="#000000" stroke-dasharray="null" stroke-linecap="null" stroke-linejoin="null" stroke-width="0" text-anchor="middle" transform="matrix(20.0534 0 0 16.9053 -3036.67 -4031.92)" x="160.5" xml:space="preserve" y="260.5">G</text>
  <text fill="#000000" font-family="serif" font-size="24" id="svg_15" stroke="#000000" stroke-dasharray="null" stroke-linecap="null" stroke-linejoin="null" stroke-width="0" text-anchor="middle" transform="matrix(17.1141 0 0 17.0339 -7960.26 -3917.59)" x="493.5" xml:space="preserve" y="251.759425">A</text>
 </g>
</svg>